<?xml version="1.0" encoding="UTF-8"?>
<svg id="Layer_2" data-name="Layer 2" xmlns="http://www.w3.org/2000/svg" viewBox="0 0 37.98 24.64">
  <defs>
    <style>
      .cls-1 {
        fill: #fff;
      }
    </style>
  </defs>
  <g id="new">
    <g id="law">
      <path d="M0,5.66S-.06,1.66,14.92,.87c14.98-.79,21.03,.07,22.18,2.84,.39,.93,.33-.07,.39,.93s-2,.1-2,.1C35.49,4.75-.29,3.51,1.23,6.99S0,5.66,0,5.66Z"/>
      <path d="M20.72,4.19c-.52,1.24,3.74,14.22,4.7,16.26s1.85,2.01,1.85,2.01c0,0-4.35,3.27-4.42,1.19S17.71,4.11,17.71,4.11"/>
    </g>
    <g id="shadow">
      <path d="M6.98,15.95l-1,1s1.11,6.42,6.56,6.71"/>
      <path d="M9.98,3.95h2l4,13-2,5-.78-.46s-.22-15.54-4.22-16.54,1-1,1-1"/>
    </g>
    <path class="cls-1" d="M22.35,5.13c-.63,1.18,3.63,13.82,4.63,15.82s2,2,2,2c0,0-5,3-5,1S18.98,4.95,18.98,4.95"/>
    <path class="cls-1" d="M.49,4S.64,0,15.64,0s21,1.17,22,4c.34,.95,.34-.05,.34,.95s-2,0-2,0C35.98,4.95,.31,1.84,1.64,5.39S.49,4,.49,4Z"/>
    <g id="Layer_1-2" data-name="Layer 1">
      <path class="cls-1" d="M6.98,15.95s0,8,8,8,0-20,0-20h-5s4,4,4,14-4.25-4.25-4.25-4.25l-2.75,2.25Z"/>
    </g>
  </g>
</svg>